<?xml version="1.0" encoding="UTF-8"?>
<svg xmlns="http://www.w3.org/2000/svg" version="1.0" width="1376.000000pt" height="768.000000pt"
    viewBox="0 0 1376.000000 768.000000" preserveAspectRatio="xMidYMid meet" style="background: transparent;">

    <g transform="translate(0.000000,768.000000) scale(0.100000,-0.100000)" fill="#ffffff" stroke="none">
        <path
            d="M6740 5965 c138 -20 260 -55 396 -115 163 -72 249 -94 371 -95 56 0 94 -3 85 -7 -38 -15 -190 -8 -253 12 -35 10 -65 18 -67 16 -2 -2 18 -19 45 -37 26 -18 68 -49 93 -69 96 -78 197 -145 270 -179 70 -33 81 -36 173 -36 96 0 99 1 119 28 24 32 53 35 69 6 9 -18 7 -25 -10 -43 -18 -17 -24 -19 -40 -9 -14 9 -29 9 -53 3 -53 -16 -132 -12 -215 11 -130 36 -176 22 -329 -101 -54 -44 -115 -87 -134 -96 -19 -9 -52 -35 -73 -58 l-37 -41 25 40 26 40 -70 21 c-78 24 -160 67 -239 126 -30 22 -56 37 -59 34 -3 -3 18 -35 47 -71 28 -36 50 -65 47 -65 -3 0 -36 38 -73 85 -97 121 -118 129 -288 123 -147 -6 -223 -26 -310 -82 -101 -65 -150 -144 -181 -291 -13 -63 -14 -64 -10 -17 3 29 15 83 27 120 12 37 22 69 22 72 1 3 22 35 48 71 83 116 176 190 291 233 72 28 60 36 -56 36 -92 0 -164 -17 -243 -55 -56 -27 -154 -109 -154 -128 0 -6 20 -30 45 -53 39 -35 45 -46 45 -81 0 -35 -6 -44 -54 -86 -34 -29 -53 -53 -52 -64 2 -10 1 -12 -1 -5 -3 7 -23 12 -51 12 -28 0 -62 8 -84 20 -23 12 -38 15 -40 8 -7 -19 -68 129 -79 190 -12 67 -2 134 30 206 26 59 15 75 -19 29 -46 -63 -83 -186 -77 -258 8 -98 41 -170 111 -242 65 -66 86 -77 86 -42 0 31 23 18 36 -20 6 -19 33 -50 70 -80 32 -27 67 -64 78 -82 18 -32 15 -31 -35 16 -81 76 -97 88 -119 90 -12 1 -58 36 -104 78 -62 56 -93 93 -115 139 -37 73 -41 56 -6 -22 15 -32 18 -47 9 -35 -33 41 -47 90 -46 160 0 56 -2 65 -10 45 -5 -14 -12 -57 -15 -95 -8 -96 14 -172 62 -214 20 -17 31 -31 26 -31 -6 0 -25 15 -44 33 -35 36 -67 117 -67 174 0 32 -1 33 -16 18 -13 -13 -16 -29 -11 -74 9 -105 65 -180 159 -212 29 -10 44 -18 33 -19 -35 0 -120 46 -149 81 -26 31 -45 66 -61 114 -7 19 -8 18 -17 -5 -12 -33 4 -89 38 -130 31 -36 17 -41 -16 -5 -17 18 -26 22 -31 13 -20 -32 64 -76 209 -108 29 -7 51 -14 49 -16 -5 -6 -197 35 -218 46 -8 5 -22 4 -30 -1 -11 -7 -8 -9 11 -9 17 0 21 -3 12 -8 -18 -12 21 -29 83 -36 74 -9 181 -66 240 -127 37 -39 40 -45 13 -22 -53 45 -115 79 -177 97 -67 20 -75 20 -67 1 3 -8 0 -15 -7 -16 -7 0 6 -9 28 -18 l40 -18 -47 5 c-27 2 -48 2 -48 -1 0 -3 29 -15 65 -27 35 -12 75 -30 87 -41 23 -18 22 -18 -18 1 -44 20 -103 37 -93 26 4 -4 26 -17 50 -29 24 -12 43 -26 43 -32 -1 -5 21 -30 48 -54 26 -25 44 -47 38 -51 -5 -3 -11 -16 -13 -28 -3 -22 -38 -64 -79 -94 l-23 -18 29 10 c54 19 35 5 -50 -39 -92 -47 -134 -92 -134 -144 0 -19 -4 -26 -12 -21 -21 13 -1 -79 37 -171 20 -48 35 -89 33 -91 -6 -6 -82 179 -100 246 l-18 65 6 -55 c6 -49 16 -90 39 -155 l7 -20 -13 20 c-7 11 -24 47 -36 80 -17 44 -23 52 -20 28 2 -18 0 -30 -5 -27 -7 4 -11 -26 -7 -52 0 -4 -4 -10 -10 -14 -6 -3 -12 -26 -14 -51 -1 -24 -6 -47 -12 -51 -10 -8 50 -129 94 -187 23 -31 24 -34 8 -46 -9 -7 -17 -17 -17 -22 0 -6 -12 -22 -26 -37 -17 -16 -22 -26 -13 -26 8 -1 3 -7 -11 -15 -15 -9 -19 -14 -10 -15 12 0 13 -2 1 -9 -11 -7 -8 -11 10 -16 23 -8 23 -8 4 -16 l-20 -8 20 0 c33 -2 52 -18 21 -18 -37 -1 -40 -5 -44 -77 -4 -67 9 -108 51 -153 11 -13 16 -23 11 -23 -12 1 -49 29 -49 38 0 4 -6 16 -12 27 -11 19 -12 19 -10 -3 2 -31 53 -75 77 -67 10 3 21 1 25 -5 3 -5 25 -10 48 -9 l42 1 -34 8 c-18 4 -45 14 -58 21 -25 14 -73 85 -73 109 0 8 10 -6 23 -30 39 -78 123 -112 220 -90 50 11 195 66 213 81 6 5 13 6 16 3 10 -9 120 45 204 101 93 62 156 128 215 224 44 72 43 49 -1 -39 -53 -106 -155 -192 -350 -299 -74 -40 -75 -41 -38 -41 55 0 145 -37 190 -78 29 -26 58 -72 101 -162 33 -69 71 -142 84 -162 13 -21 20 -38 17 -38 -4 0 -1 -8 7 -18 8 -10 -3 0 -23 22 -21 22 -65 94 -99 159 -72 140 -106 182 -174 213 -67 32 -140 31 -307 -2 -228 -45 -333 -22 -380 83 -17 39 -19 57 -13 136 l7 92 -41 38 c-49 46 -58 74 -36 117 16 32 16 33 -13 64 -41 44 -45 62 -22 113 11 25 20 60 20 79 0 30 -5 36 -61 65 -70 38 -99 70 -99 111 0 39 15 65 104 183 41 55 90 129 108 165 32 62 33 68 29 160 -11 244 -6 360 23 465 69 253 218 471 414 604 132 89 325 166 482 191 41 6 82 13 90 15 46 9 280 3 370 -10z m950 -191 c0 -8 -7 -17 -15 -20 -23 -9 -45 3 -39 20 5 12 10 13 27 5 17 -10 19 -9 14 5 -4 10 -3 15 3 11 6 -3 10 -13 10 -21z m757 -260 c8 -21 -9 -48 -33 -53 -10 -2 -36 -18 -57 -36 -51 -43 -168 -100 -235 -114 -73 -15 -138 -14 -249 5 -52 9 -128 14 -171 12 -118 -5 -164 -32 -284 -166 -64 -71 -148 -98 -228 -72 -15 5 -1 6 36 3 46 -4 70 -1 99 13 38 18 48 27 142 132 89 101 188 127 365 98 179 -29 304 -18 413 36 58 29 146 98 140 108 -10 16 15 50 36 50 11 0 22 -7 26 -16z m-1823 -138 c78 -24 147 -84 235 -209 147 -205 231 -271 351 -272 104 0 144 21 283 152 146 138 208 173 304 173 77 0 155 -28 203 -72 20 -18 63 -69 97 -113 83 -110 146 -170 212 -203 49 -23 68 -27 146 -27 84 0 95 3 161 37 91 47 98 25 10 -34 -34 -23 -69 -49 -78 -58 -24 -25 -138 -44 -227 -37 -107 8 -201 43 -340 127 -146 87 -177 99 -262 100 -105 0 -165 -36 -334 -201 -77 -75 -156 -145 -175 -155 -22 -11 -56 -18 -90 -18 -128 0 -212 93 -255 279 -20 85 -57 156 -104 197 -41 36 -54 70 -18 45 12 -9 21 -19 20 -24 -1 -5 8 -10 19 -10 18 -2 17 2 -13 35 l-34 36 40 -28 c40 -27 40 -27 -7 17 -26 24 -66 54 -90 66 -24 11 -36 21 -27 21 9 0 45 -18 80 -40 l64 -41 -45 42 c-64 60 -111 79 -195 79 -89 0 -153 -28 -216 -97 -60 -64 -74 -93 -93 -184 l-16 -74 5 60 c15 170 157 306 318 306 72 0 129 -20 194 -67 l38 -28 -28 31 c-20 21 -25 32 -16 35 16 5 -58 62 -111 85 -20 9 -66 16 -105 17 -89 1 -162 -32 -229 -104 -71 -76 -98 -143 -104 -259 -6 -116 8 -115 18 2 5 51 16 101 30 130 68 144 231 231 367 198 49 -12 129 -58 119 -68 -2 -3 -17 4 -33 15 -70 48 -184 59 -266 23 -65 -28 -138 -99 -171 -167 -35 -71 -52 -223 -30 -264 12 -22 13 -23 14 -5 1 12 7 4 15 -20 7 -22 14 -33 15 -25 1 8 6 4 10 -10 7 -23 8 -23 9 9 1 48 10 34 21 -33 13 -83 51 -158 122 -242 93 -110 125 -169 243 -446 170 -400 196 -458 209 -458 7 0 31 42 53 93 176 402 255 576 332 732 76 153 99 192 156 253 79 85 161 131 251 139 73 6 152 -18 265 -82 43 -25 104 -56 135 -70 64 -28 68 -39 9 -24 -134 32 -304 15 -425 -43 -69 -33 -188 -143 -224 -209 l-20 -34 51 43 c145 120 294 131 463 33 85 -49 121 -61 190 -61 81 0 144 22 210 74 32 25 62 46 67 46 5 0 26 14 48 31 22 17 7 -1 -33 -40 -47 -45 -98 -83 -140 -103 -59 -29 -77 -33 -149 -33 -81 0 -84 1 -195 59 -108 57 -117 60 -201 64 -84 4 -91 3 -153 -29 -45 -22 -86 -54 -130 -102 -73 -80 -126 -178 -309 -577 -138 -303 -156 -335 -197 -356 -43 -22 -102 -13 -138 21 -16 15 -52 80 -81 144 -29 64 -71 155 -95 202 -24 48 -41 89 -38 92 7 7 -80 200 -116 257 -41 63 -122 137 -179 163 -55 24 -120 19 -165 -14 -20 -15 -26 -17 -17 -5 8 9 31 26 50 36 l36 19 -51 1 c-102 0 -179 -46 -223 -135 -11 -22 -20 -34 -21 -27 0 25 39 89 74 120 40 35 119 62 181 62 100 0 216 -59 302 -153 l46 -52 -23 42 c-33 60 -106 127 -180 168 -76 40 -74 47 3 9 80 -40 131 -87 187 -172 62 -91 64 -95 51 -60 -36 96 -114 205 -175 247 -23 16 -78 47 -123 70 -46 23 -83 44 -83 47 0 2 49 -20 109 -51 121 -62 186 -120 241 -219 48 -84 48 -61 0 38 -47 99 -108 167 -213 235 -71 46 -92 68 -29 30 107 -64 165 -114 212 -181 28 -39 50 -68 50 -64 0 3 -15 37 -34 74 -25 49 -59 91 -126 157 -51 50 -112 116 -136 148 -88 118 -122 314 -79 452 23 71 86 168 136 207 88 71 224 97 333 64z m-69 -176 c-92 -7 -127 -23 -199 -88 l-51 -46 45 47 c66 70 127 97 214 95 l71 -1 -80 -7z m1865 -46 c11 -12 11 -18 -2 -31 -19 -18 -38 -10 -38 16 0 33 20 40 40 15z m128 -18 c-2 -13 -10 -21 -23 -21 -23 0 -33 34 -14 45 20 13 40 -1 37 -24z m-248 5 c0 -27 -19 -36 -37 -18 -18 18 -9 37 18 37 12 0 19 -7 19 -19z m-1148 -14 c4 -20 1 -23 -31 -22 -30 0 -37 4 -39 23 -3 19 1 22 31 22 28 0 35 -4 39 -23z m-1143 -47 c0 -9 -4 -8 -9 5 -5 11 -9 27 -9 35 0 9 4 8 9 -5 5 -11 9 -27 9 -35z m-254 -20 c13 -6 15 -9 5 -9 -8 0 -22 4 -30 9 -18 12 -2 12 25 0z m-140 -90 c3 -6 -1 -7 -9 -4 -18 7 -21 14 -7 14 6 0 13 -4 16 -10z m210 -35 c39 -17 21 -18 -25 0 -19 7 -28 14 -20 14 8 0 29 -6 45 -14z m663 -91 c4 -30 -20 -47 -43 -31 -12 10 -15 20 -10 36 9 29 49 25 53 -5z m126 11 c9 -25 -4 -45 -30 -45 -18 0 -24 5 -24 23 0 13 3 27 7 30 12 12 41 7 47 -8z m121 -15 c0 -20 -5 -25 -25 -25 -28 0 -41 32 -18 46 23 15 43 5 43 -21z m-764 3 c13 -16 12 -17 -3 -4 -10 7 -18 15 -18 17 0 8 8 3 21 -13z m-246 -73 c3 -6 -1 -7 -9 -4 -18 7 -21 14 -7 14 6 0 13 -4 16 -10z m380 -110 c3 -5 1 -10 -4 -10 -6 0 -11 5 -11 10 0 6 2 10 4 10 3 0 8 -4 11 -10z m45 -55 c19 -19 32 -35 29 -35 -3 0 -20 16 -39 35 -19 19 -32 35 -29 35 3 0 20 -16 39 -35z m586 -33 c33 -26 85 -59 115 -72 35 -15 48 -25 36 -28 -9 -2 -15 -8 -11 -13 7 -12 -60 15 -96 38 -14 9 -51 36 -83 61 -55 42 -61 44 -105 38 -28 -4 -42 -3 -37 3 6 5 21 11 35 13 79 11 85 9 146 -40z m-685 21 c13 -16 12 -17 -3 -4 -10 7 -18 15 -18 17 0 8 8 3 21 -13z m99 -101 c0 -7 -56 36 -75 59 -11 12 1 5 28 -16 26 -22 47 -41 47 -43z m61 61 c13 -16 12 -17 -3 -4 -10 7 -18 15 -18 17 0 8 8 3 21 -13z m-244 -74 c-23 -32 -86 -73 -162 -104 -89 -36 -158 -101 -175 -165 -7 -26 -10 -73 -7 -110 4 -54 3 -59 -5 -30 -18 62 -6 152 28 206 31 50 69 75 206 132 30 13 70 39 89 58 37 39 47 44 26 13z m-227 -74 c0 -2 -17 -13 -37 -24 -79 -40 -124 -113 -125 -199 -1 -57 -1 -57 -10 -18 -17 77 40 183 121 226 37 20 51 24 51 15z m1260 -24 c7 -17 10 -36 7 -43 -4 -10 -6 -9 -6 2 -1 8 -8 27 -15 43 -8 15 -11 27 -7 27 5 0 14 -13 21 -29z m-1191 -45 c-21 -20 -99 -75 -94 -66 7 12 85 70 93 70 3 0 3 -2 1 -4z m1833 -46 c51 -15 73 -47 158 -237 85 -189 76 -186 160 -48 60 98 126 163 205 203 91 45 120 48 40 5 -111 -61 -133 -81 -213 -203 -85 -131 -140 -193 -196 -222 -39 -20 -151 -48 -195 -48 -45 0 -7 22 67 39 38 9 70 20 72 24 3 10 -123 286 -131 287 -6 0 -58 -108 -174 -360 -193 -422 -252 -514 -361 -570 -62 -32 -188 -35 -243 -7 -19 9 -39 17 -46 17 -6 0 -22 11 -36 26 -21 22 -21 24 -4 19 13 -4 7 4 -15 23 -19 17 -39 28 -44 25 -5 -4 -6 -1 -2 5 3 6 2 13 -4 17 -6 3 -17 21 -26 38 -14 27 -10 25 26 -16 56 -63 104 -87 175 -87 73 0 119 20 178 78 66 65 82 94 282 537 97 214 186 400 198 414 18 20 69 49 87 51 3 0 22 -5 42 -10z m-1939 -55 c-3 -9 -8 -14 -10 -11 -3 3 -2 9 2 15 9 16 15 13 8 -4z m396 -86 c-10 -20 -34 -25 -44 -9 -3 5 -13 6 -22 3 -9 -4 -1 8 17 26 31 30 35 31 47 15 8 -12 9 -22 2 -35z m124 34 c-7 -2 -21 -2 -30 0 -10 3 -4 5 12 5 17 0 24 -2 18 -5z m54 -9 c-3 -3 -12 -4 -19 -1 -8 3 -5 6 6 6 11 1 17 -2 13 -5z m102 -41 c47 -27 122 -97 140 -130 5 -11 -20 10 -57 47 -37 37 -91 79 -122 94 -30 15 -44 24 -30 20 14 -3 45 -17 69 -31z m573 -48 c-30 -64 -51 -90 -32 -39 6 14 10 40 11 57 0 25 2 28 8 13 6 -17 9 -15 21 13 7 17 15 29 18 27 2 -3 -9 -34 -26 -71z m-992 21 c0 -2 -8 -10 -17 -17 -16 -13 -17 -12 -4 4 13 16 21 21 21 13z m161 -33 c13 -16 12 -17 -3 -4 -10 7 -18 15 -18 17 0 8 8 3 21 -13z m2297 -25 c-5 -33 -33 -46 -56 -25 -43 39 -153 5 -223 -70 -20 -21 -51 -60 -69 -88 -19 -27 -51 -71 -72 -97 l-39 -47 76 -162 c41 -90 75 -164 75 -166 0 -2 -39 -2 -86 -1 l-87 3 -53 120 c-51 114 -55 120 -81 118 -16 -1 -80 -6 -143 -11 -63 -5 -128 -14 -143 -21 -17 -6 -26 -7 -22 -1 15 24 67 38 165 44 174 11 275 71 385 225 29 42 68 90 87 108 45 43 128 83 174 83 22 0 47 7 58 15 25 19 58 2 54 -27z m-2954 16 c3 -8 2 -12 -4 -9 -6 3 -10 10 -10 16 0 14 7 11 14 -7z m446 1 c-24 -29 -91 -94 -88 -85 4 12 88 100 95 100 3 0 0 -7 -7 -15z m282 -31 c27 5 29 4 11 -4 -13 -5 -23 -13 -23 -17 0 -3 10 -18 23 -32 19 -21 16 -21 -14 4 -20 17 -42 39 -49 50 -12 18 -12 19 3 7 10 -9 28 -12 49 -8z m65 10 c-3 -3 -12 -4 -19 -1 -8 3 -5 6 6 6 11 1 17 -2 13 -5z m-803 -70 c3 -8 2 -12 -4 -9 -6 3 -10 10 -10 16 0 14 7 11 14 -7z m553 -75 c-3 -12 9 -33 35 -61 21 -24 44 -52 50 -63 6 -11 -13 6 -42 38 -29 32 -59 56 -66 53 -17 -6 -33 15 -32 40 2 16 8 19 31 16 22 -4 28 -9 24 -23z m270 -125 c7 -20 -11 -38 -32 -30 -13 4 -14 10 -5 26 13 24 28 26 37 4z m-157 -44 c6 -11 7 -20 2 -20 -6 0 -12 9 -15 20 -3 11 -3 20 -1 20 2 0 8 -9 14 -20z m7 -92 c-2 -13 -4 -5 -4 17 -1 22 1 32 4 23 2 -10 2 -28 0 -40z m462 -103 l0 -20 -9 20 c-5 11 -9 29 -9 40 l0 20 9 -20 c5 -11 9 -29 9 -40z m-1068 8 c13 -16 12 -17 -3 -4 -10 7 -18 15 -18 17 0 8 8 3 21 -13z m258 -9 c-13 -14 -33 -30 -44 -36 -11 -6 -2 6 20 25 47 43 58 48 24 11z m-180 -51 c2 -2 0 -3 -6 -3 -6 0 -21 9 -34 21 l-24 20 30 -17 c17 -10 32 -19 34 -21z m226 6 c-10 -15 -86 -69 -98 -69 -6 0 10 13 35 29 25 16 49 34 52 40 4 6 9 11 12 11 3 0 2 -5 -1 -11z m-280 -29 c10 -11 16 -20 13 -20 -3 0 -13 9 -23 20 -10 11 -16 20 -13 20 3 0 13 -9 23 -20z m123 13 c-10 -2 -26 -2 -35 0 -10 3 -2 5 17 5 19 0 27 -2 18 -5z m-83 -91 c11 -6 14 -12 7 -12 -7 0 -27 15 -45 33 -18 17 -21 22 -7 11 14 -12 34 -26 45 -32z m62 32 c-3 -3 -12 -4 -19 -1 -8 3 -5 6 6 6 11 1 17 -2 13 -5z m50 0 c-3 -3 -12 -4 -19 -1 -8 3 -5 6 6 6 11 1 17 -2 13 -5z m934 -301 c12 -26 45 -76 72 -112 29 -38 39 -55 23 -41 -70 63 -147 224 -145 299 0 14 7 -3 14 -37 8 -35 24 -84 36 -109z m119 -18 l34 -40 -32 30 c-33 29 -92 114 -92 130 0 5 13 -11 28 -36 16 -25 44 -63 62 -84z m90 -72 c0 -7 -39 17 -46 28 -3 6 5 3 20 -6 14 -10 26 -19 26 -22z m51 -18 c19 -8 27 -14 19 -14 -14 0 -72 28 -59 29 4 0 22 -7 40 -15z m66 -21 c-3 -3 -12 -4 -19 -1 -8 3 -5 6 6 6 11 1 17 -2 13 -5z m60 -10 c-3 -3 -12 -4 -19 -1 -8 3 -5 6 6 6 11 1 17 -2 13 -5z m1991 -684 l3 -75 102 0 c112 0 140 -10 174 -62 15 -22 18 -51 18 -172 l0 -146 -42 -3 -43 -3 0 129 c0 171 -2 174 -120 170 l-85 -3 -3 -147 -3 -148 -39 0 -40 0 0 263 c0 145 3 267 7 271 4 4 21 6 38 4 l30 -3 3 -75z m-4612 46 c3 -13 4 -35 2 -47 -2 -20 -10 -24 -45 -27 l-43 -3 0 44 c0 52 4 57 46 57 27 0 35 -5 40 -24z m-525 -76 c15 -36 50 -122 79 -192 29 -71 55 -128 59 -128 3 0 41 88 85 195 l79 195 43 0 c24 0 44 -4 44 -10 0 -20 -172 -431 -196 -467 -19 -30 -83 -32 -108 -4 -18 19 -196 446 -196 469 0 9 12 12 42 10 42 -3 43 -4 69 -68z m1476 51 c13 -15 148 -316 212 -473 1 -5 -19 -8 -45 -6 -46 3 -49 5 -73 53 l-26 50 -105 1 c-58 1 -115 -3 -126 -7 -13 -5 -29 -26 -39 -53 l-18 -46 -49 0 c-36 0 -49 3 -45 13 159 373 200 464 214 474 26 19 80 16 100 -6z m351 -233 l2 -248 -45 0 -45 0 0 251 0 250 43 -3 42 -3 3 -247z m548 244 c18 -11 67 -119 211 -459 l13 -33 -50 0 -51 0 -21 50 -21 50 -126 0 -126 0 -22 -50 c-21 -49 -22 -50 -67 -50 -25 0 -46 2 -46 5 0 8 170 415 188 450 19 38 29 45 72 45 19 0 40 -4 46 -8z m2622 -39 l-3 -48 -120 -2 c-147 -3 -159 -6 -173 -38 -15 -32 -16 -209 -2 -235 15 -28 72 -40 193 -40 l107 0 0 -45 0 -45 -142 0 c-158 0 -193 10 -232 63 -19 25 -21 45 -24 175 -3 172 6 201 78 239 39 21 57 23 182 23 l139 0 -3 -47z m-3963 4 c4 -19 5 -42 3 -53 -3 -16 4 -19 45 -22 l48 -3 -3 -37 c-3 -36 -4 -37 -48 -40 l-45 -3 1 -100 c1 -55 6 -105 11 -110 6 -6 29 -13 52 -16 40 -6 42 -7 39 -37 -3 -30 -4 -31 -61 -34 -105 -5 -127 30 -127 201 l0 98 -30 6 c-26 5 -30 10 -30 39 0 31 3 34 30 34 30 0 30 1 30 55 l0 55 40 0 c36 0 40 -2 45 -33z m2495 -22 l0 -55 51 0 50 0 -3 -37 c-3 -38 -3 -38 -50 -41 l-48 -3 0 -105 c0 -103 0 -105 25 -114 14 -5 35 -9 48 -7 19 2 22 -3 25 -35 l3 -38 -64 0 c-106 0 -126 32 -127 207 l0 92 -27 3 c-24 3 -28 8 -31 41 -3 35 -2 37 27 37 29 0 31 2 31 39 0 61 7 71 51 71 l39 0 0 -55z m2502 3 l3 -53 43 -3 c47 -3 58 -17 48 -57 -6 -22 -12 -25 -51 -25 l-45 0 0 -99 c0 -113 9 -131 66 -131 32 0 34 -2 34 -35 l0 -35 -65 0 c-57 0 -69 3 -90 25 -24 23 -25 30 -25 149 l0 125 -27 3 c-24 3 -28 8 -31 41 -2 25 1 37 10 38 7 1 20 2 28 3 11 1 16 16 18 54 l3 52 39 0 39 0 3 -52z m-5193 -54 c26 -5 31 -11 31 -35 0 -37 -7 -40 -92 -43 -96 -3 -98 -6 -98 -173 l0 -133 -40 0 -40 0 0 153 c0 133 2 156 20 184 11 18 30 35 42 37 69 15 132 19 177 10z m1855 -145 c32 -76 61 -139 65 -139 3 0 32 63 65 140 l58 140 44 0 c24 0 44 -2 44 -4 0 -14 -147 -346 -161 -363 -17 -19 -83 -17 -102 5 -21 24 -159 343 -154 356 3 7 21 10 44 8 l39 -4 58 -139z m604 124 c15 -11 33 -31 39 -44 17 -33 18 -290 1 -307 -8 -8 -57 -12 -155 -12 -139 0 -145 1 -168 25 -21 20 -25 34 -25 84 0 49 4 65 24 88 23 27 28 28 135 31 l111 4 0 29 c0 41 -33 51 -150 47 l-95 -3 -3 37 -3 37 58 4 c117 9 203 1 231 -20z m671 4 c48 -22 61 -68 61 -212 0 -89 -4 -135 -12 -143 -8 -8 -57 -12 -155 -12 -139 0 -145 1 -168 25 -21 20 -25 33 -25 88 0 55 3 67 26 88 23 22 35 24 135 27 104 4 109 5 109 25 0 47 -12 52 -129 52 -120 0 -138 7 -127 49 5 22 12 25 64 29 83 6 191 -2 221 -16z m369 17 c19 -6 23 -12 20 -43 l-3 -36 -77 -3 c-46 -2 -80 -8 -87 -16 -6 -7 -12 -71 -13 -147 l-3 -134 -40 0 -40 0 -3 115 c-2 63 0 134 3 158 8 53 40 91 85 102 43 10 127 12 158 4z m-3814 -20 c8 -20 8 -312 0 -341 -5 -19 -13 -23 -45 -23 l-39 0 0 190 0 190 39 0 c26 0 41 -5 45 -16z m5277 1 c16 -9 34 -27 39 -41 15 -38 13 -297 -2 -312 -8 -8 -57 -12 -155 -12 -129 0 -145 2 -163 20 -25 25 -34 60 -27 117 8 77 27 87 162 91 105 3 115 5 115 23 0 10 -9 28 -21 40 -19 19 -31 21 -117 19 -129 -3 -122 -5 -122 35 l0 35 130 0 c99 0 138 -4 161 -15z" />
        <path
            d="M6315 5920 c-203 -37 -329 -96 -434 -205 -92 -94 -121 -157 -129 -270 -7 -118 7 -142 23 -38 17 114 53 182 145 273 86 87 171 136 300 173 105 30 273 48 360 38 58 -6 49 -8 -85 -13 -264 -10 -456 -84 -586 -226 -75 -82 -130 -213 -129 -306 1 -19 2 -19 24 7 12 16 30 52 39 81 40 125 144 238 282 307 113 55 216 80 360 84 l120 4 -110 -9 c-308 -23 -525 -143 -620 -342 -34 -71 -38 -91 -13 -71 7 6 31 16 53 23 22 7 66 37 97 65 121 112 255 161 421 153 56 -3 100 -1 104 5 3 5 18 6 34 3 23 -4 37 3 80 42 96 86 132 168 90 206 -42 38 -258 47 -426 16z m362 -46 c-3 -3 -12 -4 -19 -1 -8 3 -5 6 6 6 11 1 17 -2 13 -5z m-4 -61 c-7 -2 -21 -2 -30 0 -10 3 -4 5 12 5 17 0 24 -2 18 -5z m44 -9 c-3 -3 -12 -4 -19 -1 -8 3 -5 6 6 6 11 1 17 -2 13 -5z m-217 -64 c-113 -8 -203 -31 -285 -72 -71 -35 -156 -99 -190 -142 -14 -17 -25 -27 -25 -23 0 14 94 109 138 139 97 67 239 107 377 106 l80 -1 -95 -7z" />
        <path
            d="M6770 5915 c0 -2 5 -16 12 -29 25 -56 -40 -161 -137 -223 -25 -15 -45 -31 -45 -34 0 -12 126 -92 145 -91 11 1 27 -6 37 -15 20 -18 67 -14 157 15 38 12 56 23 62 40 7 19 14 23 32 18 12 -3 33 -6 47 -6 18 0 21 -3 11 -9 -8 -5 -11 -15 -8 -23 6 -16 -7 -20 -63 -19 -19 0 -56 -7 -83 -15 -26 -9 -69 -19 -95 -22 -39 -6 -47 -11 -48 -29 -1 -12 8 -30 20 -40 l21 -18 -19 23 c-24 28 -6 29 20 1 33 -37 190 -136 250 -158 31 -12 74 -21 93 -19 32 3 37 7 48 41 11 31 10 43 0 65 -18 35 -11 62 15 62 20 0 21 4 15 74 -6 69 -31 156 -45 156 -3 0 -17 -10 -31 -22 l-26 -23 25 28 24 28 -19 35 c-20 38 -124 139 -133 130 -3 -3 -19 3 -36 13 -51 32 -246 84 -246 66z m361 -402 c13 -16 12 -17 -3 -4 -10 7 -18 15 -18 17 0 8 8 3 21 -13z m89 -70 c0 -7 -58 36 -66 49 -4 7 9 -1 29 -16 20 -16 37 -30 37 -33z" />
        <path
            d="M7170 5773 c0 -4 11 -23 25 -43 36 -52 64 -138 76 -233 6 -45 15 -90 20 -100 8 -14 5 -23 -15 -38 -24 -19 -53 -85 -42 -96 9 -9 78 40 153 108 76 69 96 81 176 104 l58 17 -80 47 c-44 27 -97 62 -118 78 -38 30 -191 131 -232 152 -11 7 -21 8 -21 4z" />
        <path
            d="M6468 5586 c-86 -35 -147 -74 -211 -134 -31 -31 -55 -57 -53 -59 2 -2 24 10 49 27 83 55 147 72 302 77 172 5 175 6 145 38 -30 32 -106 69 -126 61 -8 -3 -23 -2 -33 3 -12 7 -34 3 -73 -13z" />
        <path
            d="M5900 5409 c-60 -24 -116 -102 -101 -141 13 -32 61 -75 94 -83 38 -10 77 2 77 23 0 13 2 14 9 3 14 -22 101 63 101 100 0 40 -46 91 -79 87 -25 -3 -26 -6 -32 -78 l-5 -75 -2 68 c-2 65 -14 108 -30 106 -4 0 -18 -5 -32 -10z" />
        <path d="M5445 4539 c-4 -6 -5 -12 -2 -15 2 -3 7 2 10 11 7 17 1 20 -8 4z" />
        <path
            d="M5400 4509 c-6 -11 -38 -58 -71 -105 -61 -87 -77 -117 -36 -67 48 58 134 193 123 193 -3 0 -10 -9 -16 -21z" />
        <path
            d="M5450 4494 c-23 -37 -40 -41 -20 -5 23 44 1 17 -65 -76 -38 -54 -78 -109 -89 -123 l-21 -24 25 15 c14 8 49 52 79 97 30 45 56 80 59 78 7 -7 -76 -136 -112 -174 -22 -24 -25 -31 -12 -26 14 5 17 4 12 -4 -14 -22 13 -12 48 18 19 17 54 71 81 123 48 94 30 86 -27 -13 -38 -66 -80 -120 -92 -120 -6 0 2 12 16 28 33 35 156 242 144 242 -2 0 -14 -16 -26 -36z" />
        <path
            d="M5425 4350 c-21 -34 -47 -70 -58 -81 -11 -10 -17 -19 -11 -20 5 0 0 -4 -11 -9 -17 -7 -16 -8 8 -7 16 1 26 6 23 13 -2 6 8 24 23 40 14 16 31 40 38 54 10 22 11 20 7 -20 -3 -36 -1 -32 10 20 8 36 13 66 11 68 -2 2 -20 -24 -40 -58z" />
        <path d="M5526 4295 c-9 -26 -7 -32 5 -12 6 10 9 21 6 23 -2 3 -7 -2 -11 -11z" />
        <path
            d="M5409 3958 c7 -9 11 -21 9 -25 -2 -4 9 -21 25 -38 l30 -30 -23 40 c-13 22 -30 47 -38 55 -14 13 -15 13 -3 -2z" />
        <path
            d="M6447 5360 c-129 -33 -237 -142 -266 -271 -15 -68 -21 -120 -12 -115 5 3 11 28 14 55 13 106 100 226 202 279 71 36 193 43 258 14 26 -12 47 -19 47 -16 0 3 -24 16 -52 29 -62 28 -138 38 -191 25z" />
        <path
            d="M7727 5186 c-42 -16 -110 -60 -129 -85 -11 -13 -9 -13 12 2 114 79 211 93 308 43 53 -27 124 -92 144 -130 5 -12 -11 2 -36 31 -62 70 -149 113 -226 113 -68 0 -159 -41 -205 -92 -17 -18 -23 -27 -15 -20 29 25 34 10 5 -16 -17 -15 -26 -24 -21 -19 16 11 28 8 19 -5 -20 -33 -9 -36 44 -13 63 28 135 39 177 27 23 -6 14 -8 -40 -8 -55 1 -82 -5 -122 -23 -67 -31 -61 -38 9 -10 98 39 174 20 324 -80 99 -66 103 -69 86 -48 -7 9 -9 17 -3 17 15 0 33 -26 24 -35 -4 -5 0 -4 7 0 12 7 -3 26 -64 82 -90 84 -164 123 -246 130 -50 5 -66 1 -125 -26 -37 -17 -69 -29 -71 -27 -2 2 22 17 54 32 46 22 72 28 128 29 91 0 153 -30 267 -127 l83 -72 -43 52 c-86 103 -162 153 -259 172 -58 10 -116 -2 -179 -39 -48 -29 -57 -27 -13 3 133 90 271 62 419 -85 41 -41 72 -70 68 -65 -15 18 -8 28 9 15 9 -8 3 7 -15 33 -36 52 -41 67 -15 47 9 -8 -2 14 -25 47 -46 68 -85 105 -145 136 -52 26 -140 33 -190 14z m191 -87 c42 -21 81 -51 122 -97 33 -37 60 -71 60 -76 0 -6 -30 22 -66 62 -80 88 -142 123 -231 130 -65 5 -104 -5 -156 -41 -16 -10 -30 -17 -33 -14 -6 5 49 41 87 56 13 5 54 10 90 10 54 1 77 -4 127 -30z m-30 -108 c50 -26 165 -111 159 -118 -3 -3 -28 13 -54 36 -27 22 -73 54 -103 70 -60 33 -62 42 -2 12z" />
        <path
            d="M7682 4982 c-9 -6 5 -9 42 -9 56 0 140 -34 244 -98 23 -14 42 -24 42 -21 0 9 -103 82 -148 105 -46 24 -159 38 -180 23z" />
        <path
            d="M6916 4915 c-3 -8 -3 -30 0 -48 l5 -32 -15 30 c-14 27 -15 28 -11 5 2 -14 7 -49 10 -79 3 -30 15 -70 25 -91 23 -45 91 -108 125 -115 14 -3 35 -7 48 -10 13 -2 40 0 60 6 38 10 143 87 133 97 -4 3 8 21 26 39 17 18 27 33 21 33 -7 0 -14 -4 -18 -10 -3 -5 -20 -19 -38 -31 -18 -12 -5 4 28 35 l60 57 -59 -40 c-33 -23 -64 -41 -70 -41 -5 0 10 13 35 28 49 32 82 66 85 87 2 11 -19 13 -110 8 l-111 -5 -69 36 c-50 26 -64 31 -51 16 27 -30 101 -62 164 -70 53 -7 53 -7 14 -9 -54 -1 -131 28 -184 70 -56 44 -74 47 -54 9 40 -78 110 -127 200 -140 l50 -8 -43 -1 c-77 -2 -154 50 -217 147 -15 23 -29 42 -30 42 -2 0 -5 -7 -9 -15z m18 -21 c3 -8 2 -12 -4 -9 -6 3 -10 10 -10 16 0 14 7 11 14 -7z m148 -80 c18 -10 60 -20 93 -24 l60 -7 -48 -2 c-26 0 -64 6 -83 14 -44 18 -111 70 -125 97 -6 11 8 1 30 -21 22 -22 55 -48 73 -57z m267 17 c11 -7 5 -15 -25 -33 -57 -36 -81 -48 -96 -48 -7 1 2 7 20 15 40 18 95 55 89 62 -3 2 -20 -5 -38 -16 -19 -12 -41 -21 -49 -21 -8 0 6 11 30 24 55 28 52 28 69 17z m-409 -66 c0 -5 -5 -3 -10 5 -5 8 -10 20 -10 25 0 6 5 3 10 -5 5 -8 10 -19 10 -25z m125 -31 c16 -11 54 -22 85 -25 l55 -6 -48 -2 c-57 -1 -109 23 -152 71 l-30 33 30 -26 c17 -15 43 -35 60 -45z m-80 16 c10 -11 16 -20 13 -20 -3 0 -13 9 -23 20 -10 11 -16 20 -13 20 3 0 13 -9 23 -20z m38 -96 c18 -14 22 -21 11 -15 -22 11 -84 77 -84 89 0 4 10 -5 21 -20 11 -15 35 -39 52 -54z m3 55 c3 -6 25 -20 48 -30 22 -10 35 -19 28 -19 -7 0 -23 5 -35 11 -34 18 -71 49 -59 49 6 0 14 -5 18 -11z m219 -29 c-3 -5 -12 -10 -18 -10 -7 0 -6 4 3 10 19 12 23 12 15 0z m-38 -16 c-3 -3 -12 -4 -19 -1 -8 3 -5 6 6 6 11 1 17 -2 13 -5z m-44 -11 c-7 -2 -21 -2 -30 0 -10 3 -4 5 12 5 17 0 24 -2 18 -5z m-15 -40 c-10 -2 -26 -2 -35 0 -10 3 -2 5 17 5 19 0 27 -2 18 -5z" />
        <path d="M7141 4859 c13 -8 88 -14 78 -5 -2 2 -24 6 -48 9 -29 4 -40 2 -30 -4z" />
        <path
            d="M7623 4776 c-61 -19 -102 -48 -165 -113 -97 -102 -97 -131 0 -34 71 71 98 91 149 110 34 12 70 21 80 18 13 -3 11 -5 -7 -6 -81 -4 -217 -111 -294 -233 -47 -75 -47 -88 1 -18 100 150 244 238 388 240 53 0 27 19 -30 21 l-40 2 40 6 40 6 -40 8 c-53 9 -72 8 -122 -7z" />
        <path
            d="M7687 4719 c-95 -22 -200 -101 -268 -200 -50 -74 -50 -85 -1 -22 59 73 124 129 191 163 69 35 165 60 207 54 24 -4 26 -3 9 5 -25 12 -88 12 -138 0z" />
        <path
            d="M7693 4685 c-86 -26 -202 -113 -256 -190 -12 -16 12 1 53 39 77 72 155 115 245 134 28 6 61 15 75 21 40 16 -65 13 -117 -4z" />
        <path d="M6945 3464 c-9 -15 -12 -23 -6 -20 11 7 35 46 28 46 -3 0 -12 -12 -22 -26z" />
        <path
            d="M7144 3389 c-12 -20 -30 -49 -40 -65 -17 -26 -17 -28 -1 -15 30 24 31 4 1 -26 -17 -17 -29 -23 -32 -15 -2 8 -19 2 -48 -19 -62 -43 -106 -59 -159 -59 -30 0 -44 -4 -40 -11 4 -6 13 -8 21 -5 8 3 14 1 14 -4 0 -17 69 -22 122 -10 94 22 185 95 232 187 20 40 20 41 -1 39 -11 0 -17 5 -15 13 3 12 0 12 -12 2 -12 -10 -15 -9 -18 6 -2 14 -8 9 -24 -18z m-1 -121 c-13 -12 -25 -19 -29 -15 -10 10 16 37 34 37 13 0 12 -4 -5 -22z" />
        <path
            d="M5281 2208 c-5 -13 -23 -56 -40 -97 -17 -41 -31 -78 -31 -82 0 -5 38 -9 85 -9 47 0 85 3 85 6 0 10 -82 204 -86 204 -3 0 -9 -10 -13 -22z" />
        <path
            d="M6154 2125 l-41 -105 88 0 89 0 -21 53 c-12 28 -30 76 -41 105 -12 28 -24 52 -27 52 -3 0 -24 -47 -47 -105z" />
        <path
            d="M6968 1993 c-23 -6 -33 -45 -18 -72 10 -20 18 -22 93 -19 l82 3 3 39 c2 22 -2 42 -8 46 -13 8 -125 10 -152 3z" />
        <path
            d="M7650 1991 c-19 -5 -26 -15 -28 -37 -5 -46 14 -55 105 -52 l78 3 3 39 c2 24 -2 42 -10 47 -15 10 -112 10 -148 0z" />
        <path
            d="M9468 1994 c-13 -4 -18 -16 -18 -44 0 -46 8 -50 100 -50 77 0 93 11 88 61 l-3 33 -75 2 c-41 1 -83 0 -92 -2z" />
    </g>
</svg>